<svg xmlns="http://www.w3.org/2000/svg" width="198.0" height="118.0" viewBox="0 0 198.0 118.0">
<rect width="100%" height="100%" fill="white"/>
<circle cx="8" cy="14" r="4" fill="#e4572e"/>
<text x="16" y="17" font-size="10" fill="#333">Root</text>
<circle cx="8" cy="26" r="4" fill="#2f55d4"/>
<text x="16" y="29" font-size="10" fill="#333">Attacker</text>
<circle cx="8" cy="38" r="4" fill="#2e8b57"/>
<text x="16" y="41" font-size="10" fill="#333">Sender</text>
<circle cx="99.00" cy="59.00" r="3.2" fill="#e4572e"/>
<text x="103.00" y="55.00" font-size="8" fill="#555">1</text>
<circle cx="24.00" cy="89.00" r="3.2" fill="#2e8b57"/>
<text x="28.00" y="85.00" font-size="8" fill="#555">2</text>
<circle cx="24.00" cy="79.00" r="3.2" fill="#2e8b57"/>
<text x="28.00" y="75.00" font-size="8" fill="#555">3</text>
<circle cx="24.00" cy="69.00" r="3.2" fill="#2e8b57"/>
<text x="28.00" y="65.00" font-size="8" fill="#555">4</text>
<circle cx="24.00" cy="59.00" r="3.2" fill="#2e8b57"/>
<text x="28.00" y="55.00" font-size="8" fill="#555">5</text>
<circle cx="24.00" cy="49.00" r="3.2" fill="#2e8b57"/>
<text x="28.00" y="45.00" font-size="8" fill="#555">6</text>
<circle cx="24.00" cy="39.00" r="3.2" fill="#2e8b57"/>
<text x="28.00" y="35.00" font-size="8" fill="#555">7</text>
<circle cx="24.00" cy="29.00" r="3.2" fill="#2e8b57"/>
<text x="28.00" y="25.00" font-size="8" fill="#555">8</text>
<circle cx="29.00" cy="89.00" r="3.2" fill="#2e8b57"/>
<text x="33.00" y="85.00" font-size="8" fill="#555">9</text>
<circle cx="29.00" cy="79.00" r="3.2" fill="#2e8b57"/>
<text x="33.00" y="75.00" font-size="8" fill="#555">10</text>
<circle cx="29.00" cy="69.00" r="3.2" fill="#2e8b57"/>
<text x="33.00" y="65.00" font-size="8" fill="#555">11</text>
<circle cx="29.00" cy="59.00" r="3.2" fill="#2e8b57"/>
<text x="33.00" y="55.00" font-size="8" fill="#555">12</text>
<circle cx="29.00" cy="49.00" r="3.2" fill="#2e8b57"/>
<text x="33.00" y="45.00" font-size="8" fill="#555">13</text>
<circle cx="29.00" cy="39.00" r="3.2" fill="#2e8b57"/>
<text x="33.00" y="35.00" font-size="8" fill="#555">14</text>
<circle cx="29.00" cy="29.00" r="3.2" fill="#2e8b57"/>
<text x="33.00" y="25.00" font-size="8" fill="#555">15</text>
<circle cx="34.00" cy="94.00" r="3.2" fill="#2e8b57"/>
<text x="38.00" y="90.00" font-size="8" fill="#555">16</text>
<circle cx="34.00" cy="84.00" r="3.2" fill="#2e8b57"/>
<text x="38.00" y="80.00" font-size="8" fill="#555">17</text>
<circle cx="34.00" cy="74.00" r="3.2" fill="#2e8b57"/>
<text x="38.00" y="70.00" font-size="8" fill="#555">18</text>
<circle cx="34.00" cy="64.00" r="3.2" fill="#2e8b57"/>
<text x="38.00" y="60.00" font-size="8" fill="#555">19</text>
<circle cx="34.00" cy="54.00" r="3.2" fill="#2e8b57"/>
<text x="38.00" y="50.00" font-size="8" fill="#555">20</text>
<circle cx="34.00" cy="44.00" r="3.2" fill="#2e8b57"/>
<text x="38.00" y="40.00" font-size="8" fill="#555">21</text>
<circle cx="34.00" cy="34.00" r="3.2" fill="#2e8b57"/>
<text x="38.00" y="30.00" font-size="8" fill="#555">22</text>
<circle cx="34.00" cy="24.00" r="3.2" fill="#2e8b57"/>
<text x="38.00" y="20.00" font-size="8" fill="#555">23</text>
<circle cx="44.00" cy="94.00" r="3.2" fill="#2e8b57"/>
<text x="48.00" y="90.00" font-size="8" fill="#555">24</text>
<circle cx="44.00" cy="84.00" r="3.2" fill="#2e8b57"/>
<text x="48.00" y="80.00" font-size="8" fill="#555">25</text>
<circle cx="44.00" cy="74.00" r="3.2" fill="#2e8b57"/>
<text x="48.00" y="70.00" font-size="8" fill="#555">26</text>
<circle cx="44.00" cy="64.00" r="3.2" fill="#2e8b57"/>
<text x="48.00" y="60.00" font-size="8" fill="#555">27</text>
<circle cx="44.00" cy="54.00" r="3.2" fill="#2e8b57"/>
<text x="48.00" y="50.00" font-size="8" fill="#555">28</text>
<circle cx="44.00" cy="44.00" r="3.2" fill="#2e8b57"/>
<text x="48.00" y="40.00" font-size="8" fill="#555">29</text>
<circle cx="44.00" cy="34.00" r="3.2" fill="#2e8b57"/>
<text x="48.00" y="30.00" font-size="8" fill="#555">30</text>
<circle cx="44.00" cy="24.00" r="3.2" fill="#2e8b57"/>
<text x="48.00" y="20.00" font-size="8" fill="#555">31</text>
<circle cx="54.00" cy="94.00" r="3.2" fill="#2e8b57"/>
<text x="58.00" y="90.00" font-size="8" fill="#555">32</text>
<circle cx="54.00" cy="84.00" r="3.2" fill="#2e8b57"/>
<text x="58.00" y="80.00" font-size="8" fill="#555">33</text>
<circle cx="54.00" cy="74.00" r="3.2" fill="#2e8b57"/>
<text x="58.00" y="70.00" font-size="8" fill="#555">34</text>
<circle cx="54.00" cy="64.00" r="3.2" fill="#2e8b57"/>
<text x="58.00" y="60.00" font-size="8" fill="#555">35</text>
<circle cx="54.00" cy="54.00" r="3.2" fill="#2e8b57"/>
<text x="58.00" y="50.00" font-size="8" fill="#555">36</text>
<circle cx="54.00" cy="44.00" r="3.2" fill="#2e8b57"/>
<text x="58.00" y="40.00" font-size="8" fill="#555">37</text>
<circle cx="54.00" cy="34.00" r="3.2" fill="#2e8b57"/>
<text x="58.00" y="30.00" font-size="8" fill="#555">38</text>
<circle cx="54.00" cy="24.00" r="3.2" fill="#2e8b57"/>
<text x="58.00" y="20.00" font-size="8" fill="#555">39</text>
<circle cx="64.00" cy="94.00" r="3.2" fill="#2e8b57"/>
<text x="68.00" y="90.00" font-size="8" fill="#555">40</text>
<circle cx="64.00" cy="84.00" r="3.2" fill="#2e8b57"/>
<text x="68.00" y="80.00" font-size="8" fill="#555">41</text>
<circle cx="64.00" cy="74.00" r="3.2" fill="#2e8b57"/>
<text x="68.00" y="70.00" font-size="8" fill="#555">42</text>
<circle cx="64.00" cy="64.00" r="3.2" fill="#2e8b57"/>
<text x="68.00" y="60.00" font-size="8" fill="#555">43</text>
<circle cx="64.00" cy="54.00" r="3.2" fill="#2e8b57"/>
<text x="68.00" y="50.00" font-size="8" fill="#555">44</text>
<circle cx="64.00" cy="44.00" r="3.2" fill="#2e8b57"/>
<text x="68.00" y="40.00" font-size="8" fill="#555">45</text>
<circle cx="64.00" cy="34.00" r="3.2" fill="#2e8b57"/>
<text x="68.00" y="30.00" font-size="8" fill="#555">46</text>
<circle cx="64.00" cy="24.00" r="3.2" fill="#2e8b57"/>
<text x="68.00" y="20.00" font-size="8" fill="#555">47</text>
<circle cx="74.00" cy="84.00" r="3.2" fill="#2e8b57"/>
<text x="78.00" y="80.00" font-size="8" fill="#555">48</text>
<circle cx="74.00" cy="74.00" r="3.2" fill="#2e8b57"/>
<text x="78.00" y="70.00" font-size="8" fill="#555">49</text>
<circle cx="74.00" cy="64.00" r="3.2" fill="#2e8b57"/>
<text x="78.00" y="60.00" font-size="8" fill="#555">50</text>
<circle cx="74.00" cy="54.00" r="3.2" fill="#2e8b57"/>
<text x="78.00" y="50.00" font-size="8" fill="#555">51</text>
<circle cx="74.00" cy="44.00" r="3.2" fill="#2e8b57"/>
<text x="78.00" y="40.00" font-size="8" fill="#555">52</text>
<circle cx="74.00" cy="34.00" r="3.2" fill="#2e8b57"/>
<text x="78.00" y="30.00" font-size="8" fill="#555">53</text>
<circle cx="124.00" cy="84.00" r="3.2" fill="#2e8b57"/>
<text x="128.00" y="80.00" font-size="8" fill="#555">54</text>
<circle cx="124.00" cy="74.00" r="3.2" fill="#2e8b57"/>
<text x="128.00" y="70.00" font-size="8" fill="#555">55</text>
<circle cx="124.00" cy="64.00" r="3.2" fill="#2e8b57"/>
<text x="128.00" y="60.00" font-size="8" fill="#555">56</text>
<circle cx="124.00" cy="54.00" r="3.2" fill="#2e8b57"/>
<text x="128.00" y="50.00" font-size="8" fill="#555">57</text>
<circle cx="124.00" cy="44.00" r="3.2" fill="#2e8b57"/>
<text x="128.00" y="40.00" font-size="8" fill="#555">58</text>
<circle cx="124.00" cy="34.00" r="3.2" fill="#2e8b57"/>
<text x="128.00" y="30.00" font-size="8" fill="#555">59</text>
<circle cx="134.00" cy="94.00" r="3.2" fill="#2e8b57"/>
<text x="138.00" y="90.00" font-size="8" fill="#555">60</text>
<circle cx="134.00" cy="84.00" r="3.2" fill="#2e8b57"/>
<text x="138.00" y="80.00" font-size="8" fill="#555">61</text>
<circle cx="134.00" cy="74.00" r="3.2" fill="#2e8b57"/>
<text x="138.00" y="70.00" font-size="8" fill="#555">62</text>
<circle cx="134.00" cy="64.00" r="3.2" fill="#2e8b57"/>
<text x="138.00" y="60.00" font-size="8" fill="#555">63</text>
<circle cx="134.00" cy="54.00" r="3.2" fill="#2e8b57"/>
<text x="138.00" y="50.00" font-size="8" fill="#555">64</text>
<circle cx="134.00" cy="44.00" r="3.2" fill="#2e8b57"/>
<text x="138.00" y="40.00" font-size="8" fill="#555">65</text>
<circle cx="134.00" cy="34.00" r="3.2" fill="#2e8b57"/>
<text x="138.00" y="30.00" font-size="8" fill="#555">66</text>
<circle cx="134.00" cy="24.00" r="3.2" fill="#2e8b57"/>
<text x="138.00" y="20.00" font-size="8" fill="#555">67</text>
<circle cx="144.00" cy="94.00" r="3.2" fill="#2e8b57"/>
<text x="148.00" y="90.00" font-size="8" fill="#555">68</text>
<circle cx="144.00" cy="84.00" r="3.2" fill="#2e8b57"/>
<text x="148.00" y="80.00" font-size="8" fill="#555">69</text>
<circle cx="144.00" cy="74.00" r="3.2" fill="#2e8b57"/>
<text x="148.00" y="70.00" font-size="8" fill="#555">70</text>
<circle cx="144.00" cy="64.00" r="3.2" fill="#2e8b57"/>
<text x="148.00" y="60.00" font-size="8" fill="#555">71</text>
<circle cx="144.00" cy="54.00" r="3.2" fill="#2e8b57"/>
<text x="148.00" y="50.00" font-size="8" fill="#555">72</text>
<circle cx="144.00" cy="44.00" r="3.2" fill="#2e8b57"/>
<text x="148.00" y="40.00" font-size="8" fill="#555">73</text>
<circle cx="144.00" cy="34.00" r="3.2" fill="#2e8b57"/>
<text x="148.00" y="30.00" font-size="8" fill="#555">74</text>
<circle cx="144.00" cy="24.00" r="3.2" fill="#2e8b57"/>
<text x="148.00" y="20.00" font-size="8" fill="#555">75</text>
<circle cx="154.00" cy="94.00" r="3.2" fill="#2e8b57"/>
<text x="158.00" y="90.00" font-size="8" fill="#555">76</text>
<circle cx="154.00" cy="84.00" r="3.2" fill="#2e8b57"/>
<text x="158.00" y="80.00" font-size="8" fill="#555">77</text>
<circle cx="154.00" cy="74.00" r="3.2" fill="#2e8b57"/>
<text x="158.00" y="70.00" font-size="8" fill="#555">78</text>
<circle cx="154.00" cy="64.00" r="3.2" fill="#2e8b57"/>
<text x="158.00" y="60.00" font-size="8" fill="#555">79</text>
<circle cx="154.00" cy="54.00" r="3.2" fill="#2e8b57"/>
<text x="158.00" y="50.00" font-size="8" fill="#555">80</text>
<circle cx="154.00" cy="44.00" r="3.2" fill="#2e8b57"/>
<text x="158.00" y="40.00" font-size="8" fill="#555">81</text>
<circle cx="154.00" cy="34.00" r="3.2" fill="#2e8b57"/>
<text x="158.00" y="30.00" font-size="8" fill="#555">82</text>
<circle cx="154.00" cy="24.00" r="3.2" fill="#2e8b57"/>
<text x="158.00" y="20.00" font-size="8" fill="#555">83</text>
<circle cx="164.00" cy="94.00" r="3.2" fill="#2e8b57"/>
<text x="168.00" y="90.00" font-size="8" fill="#555">84</text>
<circle cx="164.00" cy="84.00" r="3.2" fill="#2e8b57"/>
<text x="168.00" y="80.00" font-size="8" fill="#555">85</text>
<circle cx="164.00" cy="74.00" r="3.2" fill="#2e8b57"/>
<text x="168.00" y="70.00" font-size="8" fill="#555">86</text>
<circle cx="164.00" cy="64.00" r="3.2" fill="#2e8b57"/>
<text x="168.00" y="60.00" font-size="8" fill="#555">87</text>
<circle cx="164.00" cy="54.00" r="3.2" fill="#2e8b57"/>
<text x="168.00" y="50.00" font-size="8" fill="#555">88</text>
<circle cx="164.00" cy="44.00" r="3.2" fill="#2e8b57"/>
<text x="168.00" y="40.00" font-size="8" fill="#555">89</text>
<circle cx="164.00" cy="34.00" r="3.2" fill="#2e8b57"/>
<text x="168.00" y="30.00" font-size="8" fill="#555">90</text>
<circle cx="164.00" cy="24.00" r="3.2" fill="#2e8b57"/>
<text x="168.00" y="20.00" font-size="8" fill="#555">91</text>
<circle cx="174.00" cy="89.00" r="3.2" fill="#2e8b57"/>
<text x="178.00" y="85.00" font-size="8" fill="#555">92</text>
<circle cx="174.00" cy="79.00" r="3.2" fill="#2e8b57"/>
<text x="178.00" y="75.00" font-size="8" fill="#555">93</text>
<circle cx="174.00" cy="69.00" r="3.2" fill="#2e8b57"/>
<text x="178.00" y="65.00" font-size="8" fill="#555">94</text>
<circle cx="174.00" cy="59.00" r="3.2" fill="#2e8b57"/>
<text x="178.00" y="55.00" font-size="8" fill="#555">95</text>
<circle cx="174.00" cy="49.00" r="3.2" fill="#2e8b57"/>
<text x="178.00" y="45.00" font-size="8" fill="#555">96</text>
<circle cx="174.00" cy="39.00" r="3.2" fill="#2e8b57"/>
<text x="178.00" y="35.00" font-size="8" fill="#555">97</text>
<circle cx="174.00" cy="29.00" r="3.2" fill="#2e8b57"/>
<text x="178.00" y="25.00" font-size="8" fill="#555">98</text>
<circle cx="99.00" cy="39.00" r="3.2" fill="#2f55d4"/>
<text x="103.00" y="35.00" font-size="8" fill="#555">99</text>
</svg>