<svg xmlns="http://www.w3.org/2000/svg" width="208.0" height="48.0" viewBox="0 0 208.0 48.0">
<rect width="100%" height="100%" fill="white"/>
<circle cx="8" cy="14" r="4" fill="#e4572e"/>
<text x="16" y="17" font-size="10" fill="#333">Root</text>
<circle cx="8" cy="26" r="4" fill="#2f55d4"/>
<text x="16" y="29" font-size="10" fill="#333">Attacker</text>
<circle cx="8" cy="38" r="4" fill="#2e8b57"/>
<text x="16" y="41" font-size="10" fill="#333">Sender</text>
<circle cx="104.00" cy="24.00" r="3.2" fill="#e4572e"/>
<text x="108.00" y="20.00" font-size="8" fill="#555">1</text>
<circle cx="24.00" cy="24.00" r="3.2" fill="#2e8b57"/>
<text x="28.00" y="20.00" font-size="8" fill="#555">2</text>
<circle cx="36.00" cy="24.00" r="3.2" fill="#2e8b57"/>
<text x="40.00" y="20.00" font-size="8" fill="#555">3</text>
<circle cx="48.00" cy="24.00" r="3.2" fill="#2e8b57"/>
<text x="52.00" y="20.00" font-size="8" fill="#555">4</text>
<circle cx="60.00" cy="24.00" r="3.2" fill="#2e8b57"/>
<text x="64.00" y="20.00" font-size="8" fill="#555">5</text>
<circle cx="72.00" cy="24.00" r="3.2" fill="#2e8b57"/>
<text x="76.00" y="20.00" font-size="8" fill="#555">6</text>
<circle cx="84.00" cy="24.00" r="3.2" fill="#2e8b57"/>
<text x="88.00" y="20.00" font-size="8" fill="#555">7</text>
<circle cx="112.00" cy="24.00" r="3.2" fill="#2e8b57"/>
<text x="116.00" y="20.00" font-size="8" fill="#555">8</text>
<circle cx="124.00" cy="24.00" r="3.2" fill="#2e8b57"/>
<text x="128.00" y="20.00" font-size="8" fill="#555">9</text>
<circle cx="136.00" cy="24.00" r="3.2" fill="#2e8b57"/>
<text x="140.00" y="20.00" font-size="8" fill="#555">10</text>
<circle cx="148.00" cy="24.00" r="3.2" fill="#2e8b57"/>
<text x="152.00" y="20.00" font-size="8" fill="#555">11</text>
<circle cx="160.00" cy="24.00" r="3.2" fill="#2e8b57"/>
<text x="164.00" y="20.00" font-size="8" fill="#555">12</text>
<circle cx="172.00" cy="24.00" r="3.2" fill="#2e8b57"/>
<text x="176.00" y="20.00" font-size="8" fill="#555">13</text>
<circle cx="184.00" cy="24.00" r="3.2" fill="#2e8b57"/>
<text x="188.00" y="20.00" font-size="8" fill="#555">14</text>
<circle cx="96.00" cy="24.00" r="3.2" fill="#2f55d4"/>
<text x="100.00" y="20.00" font-size="8" fill="#555">15</text>
</svg>