<svg xmlns="http://www.w3.org/2000/svg" width="233.0" height="48.0" viewBox="0 0 233.0 48.0">
<rect width="100%" height="100%" fill="white"/>
<circle cx="8" cy="14" r="4" fill="#e4572e"/>
<text x="16" y="17" font-size="10" fill="#333">Root</text>
<circle cx="8" cy="26" r="4" fill="#2f55d4"/>
<text x="16" y="29" font-size="10" fill="#333">Attacker</text>
<circle cx="8" cy="38" r="4" fill="#2e8b57"/>
<text x="16" y="41" font-size="10" fill="#333">Sender</text>
<circle cx="119.00" cy="24.00" r="3.2" fill="#e4572e"/>
<text x="123.00" y="20.00" font-size="8" fill="#555">1</text>
<circle cx="24.00" cy="24.00" r="3.2" fill="#2e8b57"/>
<text x="28.00" y="20.00" font-size="8" fill="#555">2</text>
<circle cx="27.00" cy="24.00" r="3.2" fill="#2e8b57"/>
<text x="31.00" y="20.00" font-size="8" fill="#555">3</text>
<circle cx="30.00" cy="24.00" r="3.2" fill="#2e8b57"/>
<text x="34.00" y="20.00" font-size="8" fill="#555">4</text>
<circle cx="33.00" cy="24.00" r="3.2" fill="#2e8b57"/>
<text x="37.00" y="20.00" font-size="8" fill="#555">5</text>
<circle cx="36.00" cy="24.00" r="3.2" fill="#2e8b57"/>
<text x="40.00" y="20.00" font-size="8" fill="#555">6</text>
<circle cx="39.00" cy="24.00" r="3.2" fill="#2e8b57"/>
<text x="43.00" y="20.00" font-size="8" fill="#555">7</text>
<circle cx="42.00" cy="24.00" r="3.2" fill="#2e8b57"/>
<text x="46.00" y="20.00" font-size="8" fill="#555">8</text>
<circle cx="45.00" cy="24.00" r="3.2" fill="#2e8b57"/>
<text x="49.00" y="20.00" font-size="8" fill="#555">9</text>
<circle cx="48.00" cy="24.00" r="3.2" fill="#2e8b57"/>
<text x="52.00" y="20.00" font-size="8" fill="#555">10</text>
<circle cx="51.00" cy="24.00" r="3.2" fill="#2e8b57"/>
<text x="55.00" y="20.00" font-size="8" fill="#555">11</text>
<circle cx="54.00" cy="24.00" r="3.2" fill="#2e8b57"/>
<text x="58.00" y="20.00" font-size="8" fill="#555">12</text>
<circle cx="57.00" cy="24.00" r="3.2" fill="#2e8b57"/>
<text x="61.00" y="20.00" font-size="8" fill="#555">13</text>
<circle cx="60.00" cy="24.00" r="3.2" fill="#2e8b57"/>
<text x="64.00" y="20.00" font-size="8" fill="#555">14</text>
<circle cx="63.00" cy="24.00" r="3.2" fill="#2e8b57"/>
<text x="67.00" y="20.00" font-size="8" fill="#555">15</text>
<circle cx="66.00" cy="24.00" r="3.2" fill="#2e8b57"/>
<text x="70.00" y="20.00" font-size="8" fill="#555">16</text>
<circle cx="69.00" cy="24.00" r="3.2" fill="#2e8b57"/>
<text x="73.00" y="20.00" font-size="8" fill="#555">17</text>
<circle cx="72.00" cy="24.00" r="3.2" fill="#2e8b57"/>
<text x="76.00" y="20.00" font-size="8" fill="#555">18</text>
<circle cx="75.00" cy="24.00" r="3.2" fill="#2e8b57"/>
<text x="79.00" y="20.00" font-size="8" fill="#555">19</text>
<circle cx="78.00" cy="24.00" r="3.2" fill="#2e8b57"/>
<text x="82.00" y="20.00" font-size="8" fill="#555">20</text>
<circle cx="81.00" cy="24.00" r="3.2" fill="#2e8b57"/>
<text x="85.00" y="20.00" font-size="8" fill="#555">21</text>
<circle cx="84.00" cy="24.00" r="3.2" fill="#2e8b57"/>
<text x="88.00" y="20.00" font-size="8" fill="#555">22</text>
<circle cx="87.00" cy="24.00" r="3.2" fill="#2e8b57"/>
<text x="91.00" y="20.00" font-size="8" fill="#555">23</text>
<circle cx="90.00" cy="24.00" r="3.2" fill="#2e8b57"/>
<text x="94.00" y="20.00" font-size="8" fill="#555">24</text>
<circle cx="93.00" cy="24.00" r="3.2" fill="#2e8b57"/>
<text x="97.00" y="20.00" font-size="8" fill="#555">25</text>
<circle cx="96.00" cy="24.00" r="3.2" fill="#2e8b57"/>
<text x="100.00" y="20.00" font-size="8" fill="#555">26</text>
<circle cx="99.00" cy="24.00" r="3.2" fill="#2e8b57"/>
<text x="103.00" y="20.00" font-size="8" fill="#555">27</text>
<circle cx="102.00" cy="24.00" r="3.2" fill="#2e8b57"/>
<text x="106.00" y="20.00" font-size="8" fill="#555">28</text>
<circle cx="105.00" cy="24.00" r="3.2" fill="#2e8b57"/>
<text x="109.00" y="20.00" font-size="8" fill="#555">29</text>
<circle cx="108.00" cy="24.00" r="3.2" fill="#2e8b57"/>
<text x="112.00" y="20.00" font-size="8" fill="#555">30</text>
<circle cx="111.00" cy="24.00" r="3.2" fill="#2e8b57"/>
<text x="115.00" y="20.00" font-size="8" fill="#555">31</text>
<circle cx="114.00" cy="24.00" r="3.2" fill="#2e8b57"/>
<text x="118.00" y="20.00" font-size="8" fill="#555">32</text>
<circle cx="122.00" cy="24.00" r="3.2" fill="#2e8b57"/>
<text x="126.00" y="20.00" font-size="8" fill="#555">33</text>
<circle cx="125.00" cy="24.00" r="3.2" fill="#2e8b57"/>
<text x="129.00" y="20.00" font-size="8" fill="#555">34</text>
<circle cx="128.00" cy="24.00" r="3.2" fill="#2e8b57"/>
<text x="132.00" y="20.00" font-size="8" fill="#555">35</text>
<circle cx="131.00" cy="24.00" r="3.2" fill="#2e8b57"/>
<text x="135.00" y="20.00" font-size="8" fill="#555">36</text>
<circle cx="134.00" cy="24.00" r="3.2" fill="#2e8b57"/>
<text x="138.00" y="20.00" font-size="8" fill="#555">37</text>
<circle cx="137.00" cy="24.00" r="3.2" fill="#2e8b57"/>
<text x="141.00" y="20.00" font-size="8" fill="#555">38</text>
<circle cx="140.00" cy="24.00" r="3.2" fill="#2e8b57"/>
<text x="144.00" y="20.00" font-size="8" fill="#555">39</text>
<circle cx="143.00" cy="24.00" r="3.2" fill="#2e8b57"/>
<text x="147.00" y="20.00" font-size="8" fill="#555">40</text>
<circle cx="146.00" cy="24.00" r="3.2" fill="#2e8b57"/>
<text x="150.00" y="20.00" font-size="8" fill="#555">41</text>
<circle cx="149.00" cy="24.00" r="3.2" fill="#2e8b57"/>
<text x="153.00" y="20.00" font-size="8" fill="#555">42</text>
<circle cx="152.00" cy="24.00" r="3.2" fill="#2e8b57"/>
<text x="156.00" y="20.00" font-size="8" fill="#555">43</text>
<circle cx="155.00" cy="24.00" r="3.2" fill="#2e8b57"/>
<text x="159.00" y="20.00" font-size="8" fill="#555">44</text>
<circle cx="158.00" cy="24.00" r="3.2" fill="#2e8b57"/>
<text x="162.00" y="20.00" font-size="8" fill="#555">45</text>
<circle cx="161.00" cy="24.00" r="3.2" fill="#2e8b57"/>
<text x="165.00" y="20.00" font-size="8" fill="#555">46</text>
<circle cx="164.00" cy="24.00" r="3.2" fill="#2e8b57"/>
<text x="168.00" y="20.00" font-size="8" fill="#555">47</text>
<circle cx="167.00" cy="24.00" r="3.2" fill="#2e8b57"/>
<text x="171.00" y="20.00" font-size="8" fill="#555">48</text>
<circle cx="170.00" cy="24.00" r="3.2" fill="#2e8b57"/>
<text x="174.00" y="20.00" font-size="8" fill="#555">49</text>
<circle cx="173.00" cy="24.00" r="3.2" fill="#2e8b57"/>
<text x="177.00" y="20.00" font-size="8" fill="#555">50</text>
<circle cx="176.00" cy="24.00" r="3.2" fill="#2e8b57"/>
<text x="180.00" y="20.00" font-size="8" fill="#555">51</text>
<circle cx="179.00" cy="24.00" r="3.2" fill="#2e8b57"/>
<text x="183.00" y="20.00" font-size="8" fill="#555">52</text>
<circle cx="182.00" cy="24.00" r="3.2" fill="#2e8b57"/>
<text x="186.00" y="20.00" font-size="8" fill="#555">53</text>
<circle cx="185.00" cy="24.00" r="3.2" fill="#2e8b57"/>
<text x="189.00" y="20.00" font-size="8" fill="#555">54</text>
<circle cx="188.00" cy="24.00" r="3.2" fill="#2e8b57"/>
<text x="192.00" y="20.00" font-size="8" fill="#555">55</text>
<circle cx="191.00" cy="24.00" r="3.2" fill="#2e8b57"/>
<text x="195.00" y="20.00" font-size="8" fill="#555">56</text>
<circle cx="194.00" cy="24.00" r="3.2" fill="#2e8b57"/>
<text x="198.00" y="20.00" font-size="8" fill="#555">57</text>
<circle cx="197.00" cy="24.00" r="3.2" fill="#2e8b57"/>
<text x="201.00" y="20.00" font-size="8" fill="#555">58</text>
<circle cx="200.00" cy="24.00" r="3.2" fill="#2e8b57"/>
<text x="204.00" y="20.00" font-size="8" fill="#555">59</text>
<circle cx="203.00" cy="24.00" r="3.2" fill="#2e8b57"/>
<text x="207.00" y="20.00" font-size="8" fill="#555">60</text>
<circle cx="206.00" cy="24.00" r="3.2" fill="#2e8b57"/>
<text x="210.00" y="20.00" font-size="8" fill="#555">61</text>
<circle cx="209.00" cy="24.00" r="3.2" fill="#2e8b57"/>
<text x="213.00" y="20.00" font-size="8" fill="#555">62</text>
<circle cx="107.00" cy="24.00" r="3.2" fill="#2f55d4"/>
<text x="111.00" y="20.00" font-size="8" fill="#555">63</text>
</svg>