<svg xmlns="http://www.w3.org/2000/svg" width="168.0" height="168.0" viewBox="0 0 168.0 168.0">
<rect width="100%" height="100%" fill="white"/>
<circle cx="8" cy="14" r="4" fill="#e4572e"/>
<text x="16" y="17" font-size="10" fill="#333">Root</text>
<circle cx="8" cy="26" r="4" fill="#2f55d4"/>
<text x="16" y="29" font-size="10" fill="#333">Attacker</text>
<circle cx="8" cy="38" r="4" fill="#2e8b57"/>
<text x="16" y="41" font-size="10" fill="#333">Sender</text>
<circle cx="84.00" cy="84.00" r="3.2" fill="#e4572e"/>
<text x="88.00" y="80.00" font-size="8" fill="#555">1</text>
<circle cx="24.00" cy="144.00" r="3.2" fill="#2e8b57"/>
<text x="28.00" y="140.00" font-size="8" fill="#555">2</text>
<circle cx="24.00" cy="104.00" r="3.2" fill="#2e8b57"/>
<text x="28.00" y="100.00" font-size="8" fill="#555">3</text>
<circle cx="24.00" cy="64.00" r="3.2" fill="#2e8b57"/>
<text x="28.00" y="60.00" font-size="8" fill="#555">4</text>
<circle cx="24.00" cy="24.00" r="3.2" fill="#2e8b57"/>
<text x="28.00" y="20.00" font-size="8" fill="#555">5</text>
<circle cx="64.00" cy="144.00" r="3.2" fill="#2e8b57"/>
<text x="68.00" y="140.00" font-size="8" fill="#555">6</text>
<circle cx="64.00" cy="104.00" r="3.2" fill="#2e8b57"/>
<text x="68.00" y="100.00" font-size="8" fill="#555">7</text>
<circle cx="64.00" cy="64.00" r="3.2" fill="#2e8b57"/>
<text x="68.00" y="60.00" font-size="8" fill="#555">8</text>
<circle cx="64.00" cy="24.00" r="3.2" fill="#2e8b57"/>
<text x="68.00" y="20.00" font-size="8" fill="#555">9</text>
<circle cx="104.00" cy="144.00" r="3.2" fill="#2e8b57"/>
<text x="108.00" y="140.00" font-size="8" fill="#555">10</text>
<circle cx="104.00" cy="104.00" r="3.2" fill="#2e8b57"/>
<text x="108.00" y="100.00" font-size="8" fill="#555">11</text>
<circle cx="104.00" cy="64.00" r="3.2" fill="#2e8b57"/>
<text x="108.00" y="60.00" font-size="8" fill="#555">12</text>
<circle cx="104.00" cy="24.00" r="3.2" fill="#2e8b57"/>
<text x="108.00" y="20.00" font-size="8" fill="#555">13</text>
<circle cx="144.00" cy="144.00" r="3.2" fill="#2e8b57"/>
<text x="148.00" y="140.00" font-size="8" fill="#555">14</text>
<circle cx="144.00" cy="104.00" r="3.2" fill="#2e8b57"/>
<text x="148.00" y="100.00" font-size="8" fill="#555">15</text>
<circle cx="144.00" cy="64.00" r="3.2" fill="#2e8b57"/>
<text x="148.00" y="60.00" font-size="8" fill="#555">16</text>
<circle cx="104.00" cy="84.00" r="3.2" fill="#2f55d4"/>
<text x="108.00" y="80.00" font-size="8" fill="#555">17</text>
</svg>