<svg xmlns="http://www.w3.org/2000/svg" width="223.0" height="223.0" viewBox="0 0 223.0 223.0">
<rect width="100%" height="100%" fill="white"/>
<circle cx="8" cy="14" r="4" fill="#e4572e"/>
<text x="16" y="17" font-size="10" fill="#333">Root</text>
<circle cx="8" cy="26" r="4" fill="#2f55d4"/>
<text x="16" y="29" font-size="10" fill="#333">Attacker</text>
<circle cx="8" cy="38" r="4" fill="#2e8b57"/>
<text x="16" y="41" font-size="10" fill="#333">Sender</text>
<circle cx="111.50" cy="111.50" r="3.2" fill="#e4572e"/>
<text x="115.50" y="107.50" font-size="8" fill="#555">1</text>
<circle cx="24.00" cy="199.00" r="3.2" fill="#2e8b57"/>
<text x="28.00" y="195.00" font-size="8" fill="#555">2</text>
<circle cx="24.00" cy="174.00" r="3.2" fill="#2e8b57"/>
<text x="28.00" y="170.00" font-size="8" fill="#555">3</text>
<circle cx="24.00" cy="149.00" r="3.2" fill="#2e8b57"/>
<text x="28.00" y="145.00" font-size="8" fill="#555">4</text>
<circle cx="24.00" cy="124.00" r="3.2" fill="#2e8b57"/>
<text x="28.00" y="120.00" font-size="8" fill="#555">5</text>
<circle cx="24.00" cy="99.00" r="3.2" fill="#2e8b57"/>
<text x="28.00" y="95.00" font-size="8" fill="#555">6</text>
<circle cx="24.00" cy="74.00" r="3.2" fill="#2e8b57"/>
<text x="28.00" y="70.00" font-size="8" fill="#555">7</text>
<circle cx="24.00" cy="49.00" r="3.2" fill="#2e8b57"/>
<text x="28.00" y="45.00" font-size="8" fill="#555">8</text>
<circle cx="24.00" cy="24.00" r="3.2" fill="#2e8b57"/>
<text x="28.00" y="20.00" font-size="8" fill="#555">9</text>
<circle cx="49.00" cy="199.00" r="3.2" fill="#2e8b57"/>
<text x="53.00" y="195.00" font-size="8" fill="#555">10</text>
<circle cx="49.00" cy="174.00" r="3.2" fill="#2e8b57"/>
<text x="53.00" y="170.00" font-size="8" fill="#555">11</text>
<circle cx="49.00" cy="149.00" r="3.2" fill="#2e8b57"/>
<text x="53.00" y="145.00" font-size="8" fill="#555">12</text>
<circle cx="49.00" cy="124.00" r="3.2" fill="#2e8b57"/>
<text x="53.00" y="120.00" font-size="8" fill="#555">13</text>
<circle cx="49.00" cy="99.00" r="3.2" fill="#2e8b57"/>
<text x="53.00" y="95.00" font-size="8" fill="#555">14</text>
<circle cx="49.00" cy="74.00" r="3.2" fill="#2e8b57"/>
<text x="53.00" y="70.00" font-size="8" fill="#555">15</text>
<circle cx="49.00" cy="49.00" r="3.2" fill="#2e8b57"/>
<text x="53.00" y="45.00" font-size="8" fill="#555">16</text>
<circle cx="49.00" cy="24.00" r="3.2" fill="#2e8b57"/>
<text x="53.00" y="20.00" font-size="8" fill="#555">17</text>
<circle cx="74.00" cy="199.00" r="3.2" fill="#2e8b57"/>
<text x="78.00" y="195.00" font-size="8" fill="#555">18</text>
<circle cx="74.00" cy="174.00" r="3.2" fill="#2e8b57"/>
<text x="78.00" y="170.00" font-size="8" fill="#555">19</text>
<circle cx="74.00" cy="149.00" r="3.2" fill="#2e8b57"/>
<text x="78.00" y="145.00" font-size="8" fill="#555">20</text>
<circle cx="74.00" cy="124.00" r="3.2" fill="#2e8b57"/>
<text x="78.00" y="120.00" font-size="8" fill="#555">21</text>
<circle cx="74.00" cy="99.00" r="3.2" fill="#2e8b57"/>
<text x="78.00" y="95.00" font-size="8" fill="#555">22</text>
<circle cx="74.00" cy="74.00" r="3.2" fill="#2e8b57"/>
<text x="78.00" y="70.00" font-size="8" fill="#555">23</text>
<circle cx="74.00" cy="49.00" r="3.2" fill="#2e8b57"/>
<text x="78.00" y="45.00" font-size="8" fill="#555">24</text>
<circle cx="74.00" cy="24.00" r="3.2" fill="#2e8b57"/>
<text x="78.00" y="20.00" font-size="8" fill="#555">25</text>
<circle cx="99.00" cy="199.00" r="3.2" fill="#2e8b57"/>
<text x="103.00" y="195.00" font-size="8" fill="#555">26</text>
<circle cx="99.00" cy="174.00" r="3.2" fill="#2e8b57"/>
<text x="103.00" y="170.00" font-size="8" fill="#555">27</text>
<circle cx="99.00" cy="149.00" r="3.2" fill="#2e8b57"/>
<text x="103.00" y="145.00" font-size="8" fill="#555">28</text>
<circle cx="99.00" cy="124.00" r="3.2" fill="#2e8b57"/>
<text x="103.00" y="120.00" font-size="8" fill="#555">29</text>
<circle cx="99.00" cy="99.00" r="3.2" fill="#2e8b57"/>
<text x="103.00" y="95.00" font-size="8" fill="#555">30</text>
<circle cx="99.00" cy="74.00" r="3.2" fill="#2e8b57"/>
<text x="103.00" y="70.00" font-size="8" fill="#555">31</text>
<circle cx="99.00" cy="49.00" r="3.2" fill="#2e8b57"/>
<text x="103.00" y="45.00" font-size="8" fill="#555">32</text>
<circle cx="99.00" cy="24.00" r="3.2" fill="#2e8b57"/>
<text x="103.00" y="20.00" font-size="8" fill="#555">33</text>
<circle cx="124.00" cy="199.00" r="3.2" fill="#2e8b57"/>
<text x="128.00" y="195.00" font-size="8" fill="#555">34</text>
<circle cx="124.00" cy="174.00" r="3.2" fill="#2e8b57"/>
<text x="128.00" y="170.00" font-size="8" fill="#555">35</text>
<circle cx="124.00" cy="149.00" r="3.2" fill="#2e8b57"/>
<text x="128.00" y="145.00" font-size="8" fill="#555">36</text>
<circle cx="124.00" cy="124.00" r="3.2" fill="#2e8b57"/>
<text x="128.00" y="120.00" font-size="8" fill="#555">37</text>
<circle cx="124.00" cy="99.00" r="3.2" fill="#2e8b57"/>
<text x="128.00" y="95.00" font-size="8" fill="#555">38</text>
<circle cx="124.00" cy="74.00" r="3.2" fill="#2e8b57"/>
<text x="128.00" y="70.00" font-size="8" fill="#555">39</text>
<circle cx="124.00" cy="49.00" r="3.2" fill="#2e8b57"/>
<text x="128.00" y="45.00" font-size="8" fill="#555">40</text>
<circle cx="124.00" cy="24.00" r="3.2" fill="#2e8b57"/>
<text x="128.00" y="20.00" font-size="8" fill="#555">41</text>
<circle cx="149.00" cy="199.00" r="3.2" fill="#2e8b57"/>
<text x="153.00" y="195.00" font-size="8" fill="#555">42</text>
<circle cx="149.00" cy="174.00" r="3.2" fill="#2e8b57"/>
<text x="153.00" y="170.00" font-size="8" fill="#555">43</text>
<circle cx="149.00" cy="149.00" r="3.2" fill="#2e8b57"/>
<text x="153.00" y="145.00" font-size="8" fill="#555">44</text>
<circle cx="149.00" cy="124.00" r="3.2" fill="#2e8b57"/>
<text x="153.00" y="120.00" font-size="8" fill="#555">45</text>
<circle cx="149.00" cy="99.00" r="3.2" fill="#2e8b57"/>
<text x="153.00" y="95.00" font-size="8" fill="#555">46</text>
<circle cx="149.00" cy="74.00" r="3.2" fill="#2e8b57"/>
<text x="153.00" y="70.00" font-size="8" fill="#555">47</text>
<circle cx="149.00" cy="49.00" r="3.2" fill="#2e8b57"/>
<text x="153.00" y="45.00" font-size="8" fill="#555">48</text>
<circle cx="149.00" cy="24.00" r="3.2" fill="#2e8b57"/>
<text x="153.00" y="20.00" font-size="8" fill="#555">49</text>
<circle cx="174.00" cy="199.00" r="3.2" fill="#2e8b57"/>
<text x="178.00" y="195.00" font-size="8" fill="#555">50</text>
<circle cx="174.00" cy="174.00" r="3.2" fill="#2e8b57"/>
<text x="178.00" y="170.00" font-size="8" fill="#555">51</text>
<circle cx="174.00" cy="149.00" r="3.2" fill="#2e8b57"/>
<text x="178.00" y="145.00" font-size="8" fill="#555">52</text>
<circle cx="174.00" cy="124.00" r="3.2" fill="#2e8b57"/>
<text x="178.00" y="120.00" font-size="8" fill="#555">53</text>
<circle cx="174.00" cy="99.00" r="3.2" fill="#2e8b57"/>
<text x="178.00" y="95.00" font-size="8" fill="#555">54</text>
<circle cx="174.00" cy="74.00" r="3.2" fill="#2e8b57"/>
<text x="178.00" y="70.00" font-size="8" fill="#555">55</text>
<circle cx="174.00" cy="49.00" r="3.2" fill="#2e8b57"/>
<text x="178.00" y="45.00" font-size="8" fill="#555">56</text>
<circle cx="174.00" cy="24.00" r="3.2" fill="#2e8b57"/>
<text x="178.00" y="20.00" font-size="8" fill="#555">57</text>
<circle cx="199.00" cy="199.00" r="3.2" fill="#2e8b57"/>
<text x="203.00" y="195.00" font-size="8" fill="#555">58</text>
<circle cx="199.00" cy="174.00" r="3.2" fill="#2e8b57"/>
<text x="203.00" y="170.00" font-size="8" fill="#555">59</text>
<circle cx="199.00" cy="149.00" r="3.2" fill="#2e8b57"/>
<text x="203.00" y="145.00" font-size="8" fill="#555">60</text>
<circle cx="199.00" cy="124.00" r="3.2" fill="#2e8b57"/>
<text x="203.00" y="120.00" font-size="8" fill="#555">61</text>
<circle cx="199.00" cy="99.00" r="3.2" fill="#2e8b57"/>
<text x="203.00" y="95.00" font-size="8" fill="#555">62</text>
<circle cx="199.00" cy="74.00" r="3.2" fill="#2e8b57"/>
<text x="203.00" y="70.00" font-size="8" fill="#555">63</text>
<circle cx="199.00" cy="49.00" r="3.2" fill="#2e8b57"/>
<text x="203.00" y="45.00" font-size="8" fill="#555">64</text>
<circle cx="199.00" cy="24.00" r="3.2" fill="#2e8b57"/>
<text x="203.00" y="20.00" font-size="8" fill="#555">65</text>
<circle cx="124.00" cy="111.50" r="3.2" fill="#2f55d4"/>
<text x="128.00" y="107.50" font-size="8" fill="#555">66</text>
</svg>