<svg xmlns="http://www.w3.org/2000/svg" width="188.0" height="202.0" viewBox="0 0 188.0 202.0">
<rect width="100%" height="100%" fill="white"/>
<circle cx="8" cy="14" r="4" fill="#e4572e"/>
<text x="16" y="17" font-size="10" fill="#333">Root</text>
<circle cx="8" cy="26" r="4" fill="#2f55d4"/>
<text x="16" y="29" font-size="10" fill="#333">Attacker</text>
<circle cx="8" cy="38" r="4" fill="#2e8b57"/>
<text x="16" y="41" font-size="10" fill="#333">Sender</text>
<circle cx="94.00" cy="101.00" r="3.2" fill="#e4572e"/>
<text x="98.00" y="97.00" font-size="8" fill="#555">1</text>
<circle cx="164.00" cy="101.00" r="3.2" fill="#2e8b57"/>
<text x="168.00" y="97.00" font-size="8" fill="#555">2</text>
<circle cx="161.00" cy="82.00" r="3.2" fill="#2e8b57"/>
<text x="165.00" y="78.00" font-size="8" fill="#555">3</text>
<circle cx="154.00" cy="64.00" r="3.2" fill="#2e8b57"/>
<text x="158.00" y="60.00" font-size="8" fill="#555">4</text>
<circle cx="143.00" cy="48.00" r="3.2" fill="#2e8b57"/>
<text x="147.00" y="44.00" font-size="8" fill="#555">5</text>
<circle cx="129.00" cy="35.00" r="3.2" fill="#2e8b57"/>
<text x="133.00" y="31.00" font-size="8" fill="#555">6</text>
<circle cx="112.00" cy="26.00" r="3.2" fill="#2e8b57"/>
<text x="116.00" y="22.00" font-size="8" fill="#555">7</text>
<circle cx="94.00" cy="24.00" r="3.2" fill="#2e8b57"/>
<text x="98.00" y="20.00" font-size="8" fill="#555">8</text>
<circle cx="76.00" cy="26.00" r="3.2" fill="#2e8b57"/>
<text x="80.00" y="22.00" font-size="8" fill="#555">9</text>
<circle cx="59.00" cy="35.00" r="3.2" fill="#2e8b57"/>
<text x="63.00" y="31.00" font-size="8" fill="#555">10</text>
<circle cx="45.00" cy="48.00" r="3.2" fill="#2e8b57"/>
<text x="49.00" y="44.00" font-size="8" fill="#555">11</text>
<circle cx="34.00" cy="64.00" r="3.2" fill="#2e8b57"/>
<text x="38.00" y="60.00" font-size="8" fill="#555">12</text>
<circle cx="27.00" cy="82.00" r="3.2" fill="#2e8b57"/>
<text x="31.00" y="78.00" font-size="8" fill="#555">13</text>
<circle cx="24.00" cy="101.00" r="3.2" fill="#2e8b57"/>
<text x="28.00" y="97.00" font-size="8" fill="#555">14</text>
<circle cx="27.00" cy="120.00" r="3.2" fill="#2e8b57"/>
<text x="31.00" y="116.00" font-size="8" fill="#555">15</text>
<circle cx="34.00" cy="138.00" r="3.2" fill="#2e8b57"/>
<text x="38.00" y="134.00" font-size="8" fill="#555">16</text>
<circle cx="45.00" cy="154.00" r="3.2" fill="#2e8b57"/>
<text x="49.00" y="150.00" font-size="8" fill="#555">17</text>
<circle cx="59.00" cy="167.00" r="3.2" fill="#2e8b57"/>
<text x="63.00" y="163.00" font-size="8" fill="#555">18</text>
<circle cx="76.00" cy="176.00" r="3.2" fill="#2e8b57"/>
<text x="80.00" y="172.00" font-size="8" fill="#555">19</text>
<circle cx="94.00" cy="178.00" r="3.2" fill="#2e8b57"/>
<text x="98.00" y="174.00" font-size="8" fill="#555">20</text>
<circle cx="112.00" cy="176.00" r="3.2" fill="#2e8b57"/>
<text x="116.00" y="172.00" font-size="8" fill="#555">21</text>
<circle cx="129.00" cy="167.00" r="3.2" fill="#2e8b57"/>
<text x="133.00" y="163.00" font-size="8" fill="#555">22</text>
<circle cx="143.00" cy="154.00" r="3.2" fill="#2e8b57"/>
<text x="147.00" y="150.00" font-size="8" fill="#555">23</text>
<circle cx="154.00" cy="138.00" r="3.2" fill="#2e8b57"/>
<text x="158.00" y="134.00" font-size="8" fill="#555">24</text>
<circle cx="161.00" cy="120.00" r="3.2" fill="#2e8b57"/>
<text x="165.00" y="116.00" font-size="8" fill="#555">25</text>
<circle cx="139.00" cy="101.00" r="3.2" fill="#2e8b57"/>
<text x="143.00" y="97.00" font-size="8" fill="#555">26</text>
<circle cx="138.00" cy="87.00" r="3.2" fill="#2e8b57"/>
<text x="142.00" y="83.00" font-size="8" fill="#555">27</text>
<circle cx="131.00" cy="74.00" r="3.2" fill="#2e8b57"/>
<text x="135.00" y="70.00" font-size="8" fill="#555">28</text>
<circle cx="121.00" cy="64.00" r="3.2" fill="#2e8b57"/>
<text x="125.00" y="60.00" font-size="8" fill="#555">29</text>
<circle cx="108.00" cy="57.00" r="3.2" fill="#2e8b57"/>
<text x="112.00" y="53.00" font-size="8" fill="#555">30</text>
<circle cx="94.00" cy="55.00" r="3.2" fill="#2e8b57"/>
<text x="98.00" y="51.00" font-size="8" fill="#555">31</text>
<circle cx="80.00" cy="57.00" r="3.2" fill="#2e8b57"/>
<text x="84.00" y="53.00" font-size="8" fill="#555">32</text>
<circle cx="67.00" cy="64.00" r="3.2" fill="#2e8b57"/>
<text x="71.00" y="60.00" font-size="8" fill="#555">33</text>
<circle cx="57.00" cy="74.00" r="3.2" fill="#2e8b57"/>
<text x="61.00" y="70.00" font-size="8" fill="#555">34</text>
<circle cx="50.00" cy="87.00" r="3.2" fill="#2e8b57"/>
<text x="54.00" y="83.00" font-size="8" fill="#555">35</text>
<circle cx="49.00" cy="101.00" r="3.2" fill="#2e8b57"/>
<text x="53.00" y="97.00" font-size="8" fill="#555">36</text>
<circle cx="94.00" cy="81.00" r="3.2" fill="#2f55d4"/>
<text x="98.00" y="77.00" font-size="8" fill="#555">37</text>
</svg>