<svg xmlns="http://www.w3.org/2000/svg" width="208.0" height="188.0" viewBox="0 0 208.0 188.0">
<rect width="100%" height="100%" fill="white"/>
<circle cx="8" cy="14" r="4" fill="#e4572e"/>
<text x="16" y="17" font-size="10" fill="#333">Root</text>
<circle cx="8" cy="26" r="4" fill="#2f55d4"/>
<text x="16" y="29" font-size="10" fill="#333">Attacker</text>
<circle cx="8" cy="38" r="4" fill="#2e8b57"/>
<text x="16" y="41" font-size="10" fill="#333">Sender</text>
<circle cx="104.00" cy="94.00" r="3.2" fill="#e4572e"/>
<text x="108.00" y="90.00" font-size="8" fill="#555">1</text>
<circle cx="184.00" cy="94.00" r="3.2" fill="#2e8b57"/>
<text x="188.00" y="90.00" font-size="8" fill="#555">2</text>
<circle cx="182.00" cy="83.00" r="3.2" fill="#2e8b57"/>
<text x="186.00" y="79.00" font-size="8" fill="#555">3</text>
<circle cx="178.00" cy="72.00" r="3.2" fill="#2e8b57"/>
<text x="182.00" y="68.00" font-size="8" fill="#555">4</text>
<circle cx="172.00" cy="62.00" r="3.2" fill="#2e8b57"/>
<text x="176.00" y="58.00" font-size="8" fill="#555">5</text>
<circle cx="164.00" cy="52.00" r="3.2" fill="#2e8b57"/>
<text x="168.00" y="48.00" font-size="8" fill="#555">6</text>
<circle cx="154.00" cy="43.00" r="3.2" fill="#2e8b57"/>
<text x="158.00" y="39.00" font-size="8" fill="#555">7</text>
<circle cx="143.00" cy="36.00" r="3.2" fill="#2e8b57"/>
<text x="147.00" y="32.00" font-size="8" fill="#555">8</text>
<circle cx="131.00" cy="30.00" r="3.2" fill="#2e8b57"/>
<text x="135.00" y="26.00" font-size="8" fill="#555">9</text>
<circle cx="118.00" cy="26.00" r="3.2" fill="#2e8b57"/>
<text x="122.00" y="22.00" font-size="8" fill="#555">10</text>
<circle cx="104.00" cy="24.00" r="3.2" fill="#2e8b57"/>
<text x="108.00" y="20.00" font-size="8" fill="#555">11</text>
<circle cx="90.00" cy="26.00" r="3.2" fill="#2e8b57"/>
<text x="94.00" y="22.00" font-size="8" fill="#555">12</text>
<circle cx="77.00" cy="30.00" r="3.2" fill="#2e8b57"/>
<text x="81.00" y="26.00" font-size="8" fill="#555">13</text>
<circle cx="65.00" cy="36.00" r="3.2" fill="#2e8b57"/>
<text x="69.00" y="32.00" font-size="8" fill="#555">14</text>
<circle cx="54.00" cy="43.00" r="3.2" fill="#2e8b57"/>
<text x="58.00" y="39.00" font-size="8" fill="#555">15</text>
<circle cx="44.00" cy="52.00" r="3.2" fill="#2e8b57"/>
<text x="48.00" y="48.00" font-size="8" fill="#555">16</text>
<circle cx="36.00" cy="62.00" r="3.2" fill="#2e8b57"/>
<text x="40.00" y="58.00" font-size="8" fill="#555">17</text>
<circle cx="30.00" cy="72.00" r="3.2" fill="#2e8b57"/>
<text x="34.00" y="68.00" font-size="8" fill="#555">18</text>
<circle cx="26.00" cy="83.00" r="3.2" fill="#2e8b57"/>
<text x="30.00" y="79.00" font-size="8" fill="#555">19</text>
<circle cx="24.00" cy="94.00" r="3.2" fill="#2e8b57"/>
<text x="28.00" y="90.00" font-size="8" fill="#555">20</text>
<circle cx="26.00" cy="105.00" r="3.2" fill="#2e8b57"/>
<text x="30.00" y="101.00" font-size="8" fill="#555">21</text>
<circle cx="30.00" cy="116.00" r="3.2" fill="#2e8b57"/>
<text x="34.00" y="112.00" font-size="8" fill="#555">22</text>
<circle cx="36.00" cy="126.00" r="3.2" fill="#2e8b57"/>
<text x="40.00" y="122.00" font-size="8" fill="#555">23</text>
<circle cx="44.00" cy="136.00" r="3.2" fill="#2e8b57"/>
<text x="48.00" y="132.00" font-size="8" fill="#555">24</text>
<circle cx="54.00" cy="145.00" r="3.2" fill="#2e8b57"/>
<text x="58.00" y="141.00" font-size="8" fill="#555">25</text>
<circle cx="65.00" cy="152.00" r="3.2" fill="#2e8b57"/>
<text x="69.00" y="148.00" font-size="8" fill="#555">26</text>
<circle cx="77.00" cy="158.00" r="3.2" fill="#2e8b57"/>
<text x="81.00" y="154.00" font-size="8" fill="#555">27</text>
<circle cx="90.00" cy="162.00" r="3.2" fill="#2e8b57"/>
<text x="94.00" y="158.00" font-size="8" fill="#555">28</text>
<circle cx="104.00" cy="164.00" r="3.2" fill="#2e8b57"/>
<text x="108.00" y="160.00" font-size="8" fill="#555">29</text>
<circle cx="118.00" cy="162.00" r="3.2" fill="#2e8b57"/>
<text x="122.00" y="158.00" font-size="8" fill="#555">30</text>
<circle cx="131.00" cy="158.00" r="3.2" fill="#2e8b57"/>
<text x="135.00" y="154.00" font-size="8" fill="#555">31</text>
<circle cx="143.00" cy="152.00" r="3.2" fill="#2e8b57"/>
<text x="147.00" y="148.00" font-size="8" fill="#555">32</text>
<circle cx="154.00" cy="145.00" r="3.2" fill="#2e8b57"/>
<text x="158.00" y="141.00" font-size="8" fill="#555">33</text>
<circle cx="164.00" cy="136.00" r="3.2" fill="#2e8b57"/>
<text x="168.00" y="132.00" font-size="8" fill="#555">34</text>
<circle cx="172.00" cy="126.00" r="3.2" fill="#2e8b57"/>
<text x="176.00" y="122.00" font-size="8" fill="#555">35</text>
<circle cx="178.00" cy="116.00" r="3.2" fill="#2e8b57"/>
<text x="182.00" y="112.00" font-size="8" fill="#555">36</text>
<circle cx="182.00" cy="105.00" r="3.2" fill="#2e8b57"/>
<text x="186.00" y="101.00" font-size="8" fill="#555">37</text>
<circle cx="164.00" cy="94.00" r="3.2" fill="#2e8b57"/>
<text x="168.00" y="90.00" font-size="8" fill="#555">38</text>
<circle cx="162.00" cy="84.00" r="3.2" fill="#2e8b57"/>
<text x="166.00" y="80.00" font-size="8" fill="#555">39</text>
<circle cx="158.00" cy="74.00" r="3.2" fill="#2e8b57"/>
<text x="162.00" y="70.00" font-size="8" fill="#555">40</text>
<circle cx="152.00" cy="65.00" r="3.2" fill="#2e8b57"/>
<text x="156.00" y="61.00" font-size="8" fill="#555">41</text>
<circle cx="144.00" cy="57.00" r="3.2" fill="#2e8b57"/>
<text x="148.00" y="53.00" font-size="8" fill="#555">42</text>
<circle cx="134.00" cy="50.00" r="3.2" fill="#2e8b57"/>
<text x="138.00" y="46.00" font-size="8" fill="#555">43</text>
<circle cx="123.00" cy="46.00" r="3.2" fill="#2e8b57"/>
<text x="127.00" y="42.00" font-size="8" fill="#555">44</text>
<circle cx="112.00" cy="44.00" r="3.2" fill="#2e8b57"/>
<text x="116.00" y="40.00" font-size="8" fill="#555">45</text>
<circle cx="101.00" cy="44.00" r="3.2" fill="#2e8b57"/>
<text x="105.00" y="40.00" font-size="8" fill="#555">46</text>
<circle cx="90.00" cy="46.00" r="3.2" fill="#2e8b57"/>
<text x="94.00" y="42.00" font-size="8" fill="#555">47</text>
<circle cx="79.00" cy="50.00" r="3.2" fill="#2e8b57"/>
<text x="83.00" y="46.00" font-size="8" fill="#555">48</text>
<circle cx="69.00" cy="57.00" r="3.2" fill="#2e8b57"/>
<text x="73.00" y="53.00" font-size="8" fill="#555">49</text>
<circle cx="61.00" cy="65.00" r="3.2" fill="#2e8b57"/>
<text x="65.00" y="61.00" font-size="8" fill="#555">50</text>
<circle cx="55.00" cy="74.00" r="3.2" fill="#2e8b57"/>
<text x="59.00" y="70.00" font-size="8" fill="#555">51</text>
<circle cx="51.00" cy="84.00" r="3.2" fill="#2e8b57"/>
<text x="55.00" y="80.00" font-size="8" fill="#555">52</text>
<circle cx="49.00" cy="94.00" r="3.2" fill="#2e8b57"/>
<text x="53.00" y="90.00" font-size="8" fill="#555">53</text>
<circle cx="51.00" cy="104.00" r="3.2" fill="#2e8b57"/>
<text x="55.00" y="100.00" font-size="8" fill="#555">54</text>
<circle cx="55.00" cy="114.00" r="3.2" fill="#2e8b57"/>
<text x="59.00" y="110.00" font-size="8" fill="#555">55</text>
<circle cx="61.00" cy="123.00" r="3.2" fill="#2e8b57"/>
<text x="65.00" y="119.00" font-size="8" fill="#555">56</text>
<circle cx="69.00" cy="131.00" r="3.2" fill="#2e8b57"/>
<text x="73.00" y="127.00" font-size="8" fill="#555">57</text>
<circle cx="79.00" cy="138.00" r="3.2" fill="#2e8b57"/>
<text x="83.00" y="134.00" font-size="8" fill="#555">58</text>
<circle cx="90.00" cy="142.00" r="3.2" fill="#2e8b57"/>
<text x="94.00" y="138.00" font-size="8" fill="#555">59</text>
<circle cx="101.00" cy="144.00" r="3.2" fill="#2e8b57"/>
<text x="105.00" y="140.00" font-size="8" fill="#555">60</text>
<circle cx="112.00" cy="144.00" r="3.2" fill="#2e8b57"/>
<text x="116.00" y="140.00" font-size="8" fill="#555">61</text>
<circle cx="123.00" cy="142.00" r="3.2" fill="#2e8b57"/>
<text x="127.00" y="138.00" font-size="8" fill="#555">62</text>
<circle cx="134.00" cy="138.00" r="3.2" fill="#2e8b57"/>
<text x="138.00" y="134.00" font-size="8" fill="#555">63</text>
<circle cx="144.00" cy="131.00" r="3.2" fill="#2e8b57"/>
<text x="148.00" y="127.00" font-size="8" fill="#555">64</text>
<circle cx="152.00" cy="123.00" r="3.2" fill="#2e8b57"/>
<text x="156.00" y="119.00" font-size="8" fill="#555">65</text>
<circle cx="158.00" cy="114.00" r="3.2" fill="#2e8b57"/>
<text x="162.00" y="110.00" font-size="8" fill="#555">66</text>
<circle cx="162.00" cy="104.00" r="3.2" fill="#2e8b57"/>
<text x="166.00" y="100.00" font-size="8" fill="#555">67</text>
<circle cx="104.00" cy="74.00" r="3.2" fill="#2f55d4"/>
<text x="108.00" y="70.00" font-size="8" fill="#555">68</text>
</svg>